<?xml version="1.0" encoding="utf-8"?>
<!-- Generator: Adobe Illustrator 26.0.2, SVG Export Plug-In . SVG Version: 6.00 Build 0)  -->
<svg version="1.1" id="Layer_1" xmlns="http://www.w3.org/2000/svg" xmlns:xlink="http://www.w3.org/1999/xlink" x="0px" y="0px"
	 viewBox="0 0 32 32" style="enable-background:new 0 0 32 32;" xml:space="preserve">
<style type="text/css">
	.st0{fill-rule:evenodd;clip-rule:evenodd;}
</style>
<g>
	<path class="st0" d="M3.3,25.3c0.1-0.2,0.2-0.4,0.3-0.5c0.7-1,1.4-2,2.1-3c0.1-0.2,0.1-0.3,0-0.5c-0.3-0.6-0.5-1.2-0.7-1.8
		c-0.1-0.2-0.1-0.3-0.3-0.3C3.5,19,2.2,18.8,1,18.5c-0.5-0.1-0.7-0.3-0.7-0.8c0-1.2,0-2.4,0-3.5c0-0.5,0.2-0.7,0.7-0.8
		c1.2-0.2,2.4-0.4,3.7-0.6c0.2,0,0.3-0.1,0.4-0.3c0.2-0.6,0.5-1.2,0.8-1.8c0.1-0.2,0.1-0.3,0-0.5c-0.7-1-1.4-2-2.1-3
		C3.3,6.8,3.3,6.5,3.8,6.1c0.8-0.8,1.6-1.6,2.4-2.4c0.4-0.4,0.7-0.4,1.1-0.1c1,0.7,2,1.4,3,2.1c0.2,0.1,0.3,0.1,0.5,0.1
		c0.6-0.3,1.2-0.5,1.8-0.7c0.2-0.1,0.3-0.2,0.3-0.4C13,3.5,13.2,2.3,13.4,1c0.1-0.5,0.3-0.7,0.8-0.7c1.2,0,2.4,0,3.5,0
		c0.5,0,0.7,0.2,0.8,0.7c0.2,1.2,0.4,2.5,0.7,3.7c0,0.1,0.1,0.2,0.3,0.3c0.6,0.3,1.2,0.5,1.8,0.8c0.2,0.1,0.3,0.1,0.5,0
		c1-0.7,2-1.4,3-2.1c0.5-0.3,0.7-0.3,1.2,0.1c0.8,0.8,1.6,1.6,2.4,2.4c0.4,0.4,0.4,0.7,0.1,1.1c-0.7,1-1.4,2-2.1,3.1
		c-0.1,0.2-0.1,0.3,0,0.5c0.3,0.6,0.5,1.2,0.7,1.8c0.1,0.2,0.2,0.3,0.4,0.3c1.2,0.2,2.5,0.4,3.7,0.6c0.4,0.1,0.6,0.3,0.6,0.7
		c0,1.2,0,2.4,0,3.6c0,0.4-0.2,0.6-0.6,0.7c-1.2,0.2-2.5,0.5-3.7,0.7c-0.2,0-0.3,0.1-0.4,0.3c-0.2,0.6-0.5,1.2-0.7,1.8
		c-0.1,0.2-0.1,0.3,0,0.5c0.7,1,1.4,2,2.1,3c0.4,0.5,0.3,0.8-0.1,1.2c-0.8,0.8-1.6,1.6-2.4,2.4c-0.4,0.4-0.7,0.4-1.1,0.1
		c-1-0.7-2-1.4-3-2.1c-0.2-0.1-0.3-0.1-0.5,0c-0.6,0.3-1.2,0.5-1.8,0.7c-0.2,0.1-0.3,0.1-0.3,0.3c-0.2,1.2-0.4,2.5-0.7,3.7
		c-0.1,0.5-0.3,0.7-0.8,0.7c-1.2,0-2.4,0-3.5,0c-0.5,0-0.7-0.2-0.8-0.7c-0.2-1.2-0.4-2.5-0.6-3.7c0-0.2-0.1-0.3-0.3-0.4
		c-0.6-0.2-1.2-0.5-1.8-0.7c-0.2-0.1-0.3-0.1-0.5,0.1c-1,0.7-1.9,1.4-2.9,2c-0.6,0.4-0.8,0.4-1.3-0.1c-0.8-0.8-1.6-1.6-2.3-2.3
		C3.5,25.7,3.5,25.5,3.3,25.3z M27,6.9c-0.6-0.6-1.2-1.2-1.8-1.8c-1,0.7-2,1.4-3,2.2c-0.3,0.2-0.6,0.2-1,0.1c-0.8-0.4-1.6-0.7-2.5-1
		C18.2,6,18,5.8,17.9,5.4c-0.2-1.2-0.4-2.4-0.6-3.6c-0.9,0-1.7,0-2.6,0c-0.2,1.2-0.4,2.4-0.6,3.6C14,5.8,13.8,6,13.3,6.2
		c-0.8,0.3-1.6,0.6-2.4,1c-0.4,0.2-0.8,0.2-1.2-0.1c-1-0.7-2-1.4-2.9-2.1C6.3,5.6,5.7,6.2,5,6.9c0,0.1,0.1,0.2,0.2,0.2
		C5.9,8,6.5,9,7.2,9.9c0.2,0.3,0.3,0.6,0.1,0.9c-0.5,0.9-0.9,1.8-1.1,2.7C6,13.8,5.8,14,5.5,14.1c-0.6,0.1-1.3,0.2-1.9,0.3
		c-0.6,0.1-1.2,0.2-1.8,0.3c0,0.9,0,1.7,0,2.6c1.2,0.2,2.4,0.4,3.6,0.6C5.7,18,6,18.1,6.1,18.6c0.2,0.9,0.6,1.8,1.1,2.6
		c0.2,0.3,0.2,0.6,0,0.9c-0.7,0.9-1.3,1.9-2,2.8C5.1,25,5,25.1,5,25.1c0.6,0.6,1.2,1.2,1.8,1.8c0.1,0,0.2-0.1,0.2-0.2
		c0.9-0.6,1.8-1.3,2.8-1.9c0.3-0.3,0.7-0.2,1,0c0.7,0.3,1.3,0.7,2,0.9c1.2,0.4,1.1,0.3,1.3,1.5c0.2,1,0.3,2,0.5,3c0.9,0,1.7,0,2.6,0
		c0.2-1.2,0.4-2.4,0.6-3.6c0.1-0.5,0.3-0.7,0.7-0.9c0.8-0.3,1.7-0.7,2.5-1c0.3-0.2,0.6-0.2,0.9,0c0.6,0.4,1.1,0.8,1.7,1.2
		c0.5,0.3,0.9,0.6,1.4,1c0.6-0.6,1.2-1.2,1.8-1.8c-0.7-1-1.4-2-2.2-3c-0.3-0.4-0.3-0.7-0.1-1.1c0.3-0.7,0.7-1.4,0.9-2.1
		c0.2-0.7,0.6-1.1,1.3-1.1c0,0,0.1,0,0.1,0c1.1-0.2,2.1-0.4,3.2-0.6c0-0.8,0-1.6,0-2.4c0-0.1-0.1-0.2-0.2-0.2
		c-1.1-0.2-2.3-0.4-3.4-0.6c-0.5-0.1-0.7-0.3-0.9-0.8c-0.3-0.8-0.6-1.6-1-2.3c-0.2-0.4-0.2-0.8,0.1-1.2C25.6,8.8,26.3,7.8,27,6.9z"
		/>
	<path class="st0" d="M16,21.4c-3,0-5.4-2.5-5.4-5.5c0-3,2.5-5.4,5.5-5.4c3,0,5.4,2.5,5.4,5.5C21.4,19,19,21.5,16,21.4z M11.9,16
		c0,2.3,1.8,4.1,4.1,4.1c2.2,0,4.1-1.8,4.1-4.1c0-2.3-1.8-4.1-4.1-4.1C13.8,11.9,11.9,13.7,11.9,16z"/>
</g>
</svg>
